<mxfile host="app.diagrams.net" modified="2024-05-19T22:47:16.968Z" agent="Mozilla/5.0 (Windows NT 10.0; Win64; x64) AppleWebKit/537.36 (KHTML, like Gecko) Chrome/122.0.0.0 YaBrowser/24.4.0.0 Safari/537.36" etag="wAW-mVOd4rcJU7HY4alB" version="24.4.4" type="device" pages="2">
  <diagram name="ipv4" id="VutqDI3XJ7o1JRqIaa5H">
    <mxGraphModel dx="1225" dy="534" grid="0" gridSize="10" guides="1" tooltips="1" connect="1" arrows="1" fold="1" page="1" pageScale="1" pageWidth="827" pageHeight="1169" math="0" shadow="0">
      <root>
        <mxCell id="0" />
        <mxCell id="1" parent="0" />
        <mxCell id="-A09fkS9if9eP6ncP4yl-1" value="" style="sketch=0;points=[[0.015,0.015,0],[0.985,0.015,0],[0.985,0.985,0],[0.015,0.985,0],[0.25,0,0],[0.5,0,0],[0.75,0,0],[1,0.25,0],[1,0.5,0],[1,0.75,0],[0.75,1,0],[0.5,1,0],[0.25,1,0],[0,0.75,0],[0,0.5,0],[0,0.25,0]];verticalLabelPosition=bottom;html=1;verticalAlign=top;aspect=fixed;align=center;pointerEvents=1;shape=mxgraph.cisco19.rect;prIcon=l3_switch;fillColor=#FAFAFA;strokeColor=#005073;" vertex="1" parent="1">
          <mxGeometry x="480" y="480" width="60" height="60" as="geometry" />
        </mxCell>
        <mxCell id="-A09fkS9if9eP6ncP4yl-2" value="" style="sketch=0;points=[[0.015,0.015,0],[0.985,0.015,0],[0.985,0.985,0],[0.015,0.985,0],[0.25,0,0],[0.5,0,0],[0.75,0,0],[1,0.25,0],[1,0.5,0],[1,0.75,0],[0.75,1,0],[0.5,1,0],[0.25,1,0],[0,0.75,0],[0,0.5,0],[0,0.25,0]];verticalLabelPosition=bottom;html=1;verticalAlign=top;aspect=fixed;align=center;pointerEvents=1;shape=mxgraph.cisco19.rect;prIcon=l3_switch;fillColor=#FAFAFA;strokeColor=#005073;" vertex="1" parent="1">
          <mxGeometry x="390" y="350" width="60" height="60" as="geometry" />
        </mxCell>
        <mxCell id="-A09fkS9if9eP6ncP4yl-3" value="" style="sketch=0;points=[[0.015,0.015,0],[0.985,0.015,0],[0.985,0.985,0],[0.015,0.985,0],[0.25,0,0],[0.5,0,0],[0.75,0,0],[1,0.25,0],[1,0.5,0],[1,0.75,0],[0.75,1,0],[0.5,1,0],[0.25,1,0],[0,0.75,0],[0,0.5,0],[0,0.25,0]];verticalLabelPosition=bottom;html=1;verticalAlign=top;aspect=fixed;align=center;pointerEvents=1;shape=mxgraph.cisco19.rect;prIcon=l3_switch;fillColor=#FAFAFA;strokeColor=#005073;" vertex="1" parent="1">
          <mxGeometry x="300" y="480" width="60" height="60" as="geometry" />
        </mxCell>
        <mxCell id="-A09fkS9if9eP6ncP4yl-4" style="edgeStyle=orthogonalEdgeStyle;rounded=0;orthogonalLoop=1;jettySize=auto;html=1;exitX=0.25;exitY=0;exitDx=0;exitDy=0;exitPerimeter=0;entryX=0.75;entryY=1;entryDx=0;entryDy=0;entryPerimeter=0;endArrow=none;endFill=0;" edge="1" parent="1" source="-A09fkS9if9eP6ncP4yl-1" target="-A09fkS9if9eP6ncP4yl-2">
          <mxGeometry relative="1" as="geometry" />
        </mxCell>
        <mxCell id="-A09fkS9if9eP6ncP4yl-5" style="edgeStyle=orthogonalEdgeStyle;rounded=0;orthogonalLoop=1;jettySize=auto;html=1;exitX=0.75;exitY=0;exitDx=0;exitDy=0;exitPerimeter=0;entryX=0.25;entryY=1;entryDx=0;entryDy=0;entryPerimeter=0;endArrow=none;endFill=0;" edge="1" parent="1" source="-A09fkS9if9eP6ncP4yl-3" target="-A09fkS9if9eP6ncP4yl-2">
          <mxGeometry relative="1" as="geometry" />
        </mxCell>
        <mxCell id="-A09fkS9if9eP6ncP4yl-6" value="" style="sketch=0;points=[[0.015,0.015,0],[0.985,0.015,0],[0.985,0.985,0],[0.015,0.985,0],[0.25,0,0],[0.5,0,0],[0.75,0,0],[1,0.25,0],[1,0.5,0],[1,0.75,0],[0.75,1,0],[0.5,1,0],[0.25,1,0],[0,0.75,0],[0,0.5,0],[0,0.25,0]];verticalLabelPosition=bottom;html=1;verticalAlign=top;aspect=fixed;align=center;pointerEvents=1;shape=mxgraph.cisco19.server;fillColor=#005073;strokeColor=none;" vertex="1" parent="1">
          <mxGeometry x="487" y="606" width="50" height="90.91" as="geometry" />
        </mxCell>
        <mxCell id="-A09fkS9if9eP6ncP4yl-7" value="" style="sketch=0;points=[[0.015,0.015,0],[0.985,0.015,0],[0.985,0.985,0],[0.015,0.985,0],[0.25,0,0],[0.5,0,0],[0.75,0,0],[1,0.25,0],[1,0.5,0],[1,0.75,0],[0.75,1,0],[0.5,1,0],[0.25,1,0],[0,0.75,0],[0,0.5,0],[0,0.25,0]];verticalLabelPosition=bottom;html=1;verticalAlign=top;aspect=fixed;align=center;pointerEvents=1;shape=mxgraph.cisco19.server;fillColor=#005073;strokeColor=none;" vertex="1" parent="1">
          <mxGeometry x="307" y="606" width="50" height="90.91" as="geometry" />
        </mxCell>
        <mxCell id="-A09fkS9if9eP6ncP4yl-8" style="edgeStyle=orthogonalEdgeStyle;rounded=0;orthogonalLoop=1;jettySize=auto;html=1;exitX=0.75;exitY=0;exitDx=0;exitDy=0;exitPerimeter=0;entryX=0.75;entryY=1;entryDx=0;entryDy=0;entryPerimeter=0;endArrow=none;endFill=0;" edge="1" parent="1" source="-A09fkS9if9eP6ncP4yl-6" target="-A09fkS9if9eP6ncP4yl-1">
          <mxGeometry relative="1" as="geometry" />
        </mxCell>
        <mxCell id="-A09fkS9if9eP6ncP4yl-9" style="edgeStyle=orthogonalEdgeStyle;rounded=0;orthogonalLoop=1;jettySize=auto;html=1;exitX=0.75;exitY=0;exitDx=0;exitDy=0;exitPerimeter=0;entryX=0.75;entryY=1;entryDx=0;entryDy=0;entryPerimeter=0;endArrow=none;endFill=0;" edge="1" parent="1" source="-A09fkS9if9eP6ncP4yl-7" target="-A09fkS9if9eP6ncP4yl-3">
          <mxGeometry relative="1" as="geometry" />
        </mxCell>
        <mxCell id="-A09fkS9if9eP6ncP4yl-10" value="&lt;b&gt;&lt;font style=&quot;font-size: 13px;&quot;&gt;CLI&lt;/font&gt;&lt;/b&gt;" style="text;html=1;align=center;verticalAlign=middle;resizable=0;points=[];autosize=1;strokeColor=none;fillColor=none;" vertex="1" parent="1">
          <mxGeometry x="344.29" y="270" width="40" height="30" as="geometry" />
        </mxCell>
        <mxCell id="-A09fkS9if9eP6ncP4yl-11" value="" style="points=[[0.13,0.02,0],[0.5,0,0],[0.87,0.02,0],[0.885,0.4,0],[0.985,0.985,0],[0.5,1,0],[0.015,0.985,0],[0.115,0.4,0]];verticalLabelPosition=bottom;sketch=0;html=1;verticalAlign=top;aspect=fixed;align=center;pointerEvents=1;shape=mxgraph.cisco19.laptop;fillColor=#005073;strokeColor=none;" vertex="1" parent="1">
          <mxGeometry x="384.28999999999996" y="260" width="71.43" height="50" as="geometry" />
        </mxCell>
        <mxCell id="-A09fkS9if9eP6ncP4yl-12" value="&lt;b&gt;&lt;font style=&quot;font-size: 13px;&quot;&gt;ISP&lt;/font&gt;&lt;/b&gt;" style="text;html=1;align=center;verticalAlign=middle;resizable=0;points=[];autosize=1;strokeColor=none;fillColor=none;" vertex="1" parent="1">
          <mxGeometry x="344.29" y="370" width="40" height="30" as="geometry" />
        </mxCell>
        <mxCell id="-A09fkS9if9eP6ncP4yl-13" style="edgeStyle=orthogonalEdgeStyle;rounded=0;orthogonalLoop=1;jettySize=auto;html=1;exitX=0.5;exitY=0;exitDx=0;exitDy=0;exitPerimeter=0;entryX=0.5;entryY=1;entryDx=0;entryDy=0;entryPerimeter=0;endArrow=none;endFill=0;" edge="1" parent="1" source="-A09fkS9if9eP6ncP4yl-2" target="-A09fkS9if9eP6ncP4yl-11">
          <mxGeometry relative="1" as="geometry" />
        </mxCell>
        <mxCell id="-A09fkS9if9eP6ncP4yl-14" value="&lt;span style=&quot;font-size: 13px;&quot;&gt;&lt;b&gt;HQ-R&lt;/b&gt;&lt;/span&gt;" style="text;html=1;align=center;verticalAlign=middle;resizable=0;points=[];autosize=1;strokeColor=none;fillColor=none;" vertex="1" parent="1">
          <mxGeometry x="250" y="495" width="60" height="30" as="geometry" />
        </mxCell>
        <mxCell id="-A09fkS9if9eP6ncP4yl-15" value="&lt;span style=&quot;font-size: 13px;&quot;&gt;&lt;b&gt;BR-R&lt;/b&gt;&lt;/span&gt;" style="text;html=1;align=center;verticalAlign=middle;resizable=0;points=[];autosize=1;strokeColor=none;fillColor=none;" vertex="1" parent="1">
          <mxGeometry x="431" y="495" width="60" height="30" as="geometry" />
        </mxCell>
        <mxCell id="-A09fkS9if9eP6ncP4yl-16" value="&lt;span style=&quot;font-size: 13px;&quot;&gt;&lt;b&gt;HQ-SRV&lt;/b&gt;&lt;/span&gt;" style="text;html=1;align=center;verticalAlign=middle;resizable=0;points=[];autosize=1;strokeColor=none;fillColor=none;" vertex="1" parent="1">
          <mxGeometry x="240" y="636.46" width="70" height="30" as="geometry" />
        </mxCell>
        <mxCell id="-A09fkS9if9eP6ncP4yl-17" value="&lt;span style=&quot;font-size: 13px;&quot;&gt;&lt;b&gt;BR-SRV&lt;/b&gt;&lt;/span&gt;" style="text;html=1;align=center;verticalAlign=middle;resizable=0;points=[];autosize=1;strokeColor=none;fillColor=none;" vertex="1" parent="1">
          <mxGeometry x="421" y="636.46" width="70" height="30" as="geometry" />
        </mxCell>
        <mxCell id="-A09fkS9if9eP6ncP4yl-18" value="10.10.11.1/30" style="text;html=1;align=center;verticalAlign=middle;resizable=0;points=[];autosize=1;strokeColor=none;fillColor=none;" vertex="1" parent="1">
          <mxGeometry x="314.29" y="403" width="100" height="30" as="geometry" />
        </mxCell>
        <mxCell id="-A09fkS9if9eP6ncP4yl-19" value="10.10.11.2/30" style="text;html=1;align=center;verticalAlign=middle;resizable=0;points=[];autosize=1;strokeColor=none;fillColor=none;" vertex="1" parent="1">
          <mxGeometry x="255" y="457" width="100" height="30" as="geometry" />
        </mxCell>
        <mxCell id="-A09fkS9if9eP6ncP4yl-20" value="10.10.11.5/30" style="text;html=1;align=center;verticalAlign=middle;resizable=0;points=[];autosize=1;strokeColor=none;fillColor=none;" vertex="1" parent="1">
          <mxGeometry x="425" y="403" width="100" height="30" as="geometry" />
        </mxCell>
        <mxCell id="-A09fkS9if9eP6ncP4yl-21" value="10.10.11.6/30" style="text;html=1;align=center;verticalAlign=middle;resizable=0;points=[];autosize=1;strokeColor=none;fillColor=none;" vertex="1" parent="1">
          <mxGeometry x="485" y="456" width="100" height="30" as="geometry" />
        </mxCell>
        <mxCell id="-A09fkS9if9eP6ncP4yl-22" value="172.16.16.1/27" style="text;html=1;align=center;verticalAlign=middle;resizable=0;points=[];autosize=1;strokeColor=none;fillColor=none;" vertex="1" parent="1">
          <mxGeometry x="244.29" y="540" width="100" height="30" as="geometry" />
        </mxCell>
        <mxCell id="-A09fkS9if9eP6ncP4yl-23" value="172.16.32.1/28" style="text;html=1;align=center;verticalAlign=middle;resizable=0;points=[];autosize=1;strokeColor=none;fillColor=none;" vertex="1" parent="1">
          <mxGeometry x="425" y="540" width="100" height="30" as="geometry" />
        </mxCell>
        <mxCell id="-A09fkS9if9eP6ncP4yl-24" value="172.16.16.2/27" style="text;html=1;align=center;verticalAlign=middle;resizable=0;points=[];autosize=1;strokeColor=none;fillColor=none;" vertex="1" parent="1">
          <mxGeometry x="242.99999999999997" y="576" width="100" height="30" as="geometry" />
        </mxCell>
        <mxCell id="-A09fkS9if9eP6ncP4yl-25" value="172.16.32.2/28" style="text;html=1;align=center;verticalAlign=middle;resizable=0;points=[];autosize=1;strokeColor=none;fillColor=none;" vertex="1" parent="1">
          <mxGeometry x="425" y="576" width="100" height="30" as="geometry" />
        </mxCell>
        <mxCell id="-A09fkS9if9eP6ncP4yl-26" value="192.168.0.1/24" style="text;html=1;align=center;verticalAlign=middle;resizable=0;points=[];autosize=1;strokeColor=none;fillColor=none;" vertex="1" parent="1">
          <mxGeometry x="320" y="321" width="100" height="30" as="geometry" />
        </mxCell>
      </root>
    </mxGraphModel>
  </diagram>
  <diagram name="ipv6" id="6i5a6m95e7dPDNzKhzGV">
    <mxGraphModel dx="1838" dy="801" grid="0" gridSize="10" guides="1" tooltips="1" connect="1" arrows="1" fold="1" page="1" pageScale="1" pageWidth="827" pageHeight="1169" math="0" shadow="0">
      <root>
        <mxCell id="8U7Hw96THtBCdrMIRHDT-0" />
        <mxCell id="8U7Hw96THtBCdrMIRHDT-1" parent="8U7Hw96THtBCdrMIRHDT-0" />
        <mxCell id="8U7Hw96THtBCdrMIRHDT-2" value="" style="sketch=0;points=[[0.015,0.015,0],[0.985,0.015,0],[0.985,0.985,0],[0.015,0.985,0],[0.25,0,0],[0.5,0,0],[0.75,0,0],[1,0.25,0],[1,0.5,0],[1,0.75,0],[0.75,1,0],[0.5,1,0],[0.25,1,0],[0,0.75,0],[0,0.5,0],[0,0.25,0]];verticalLabelPosition=bottom;html=1;verticalAlign=top;aspect=fixed;align=center;pointerEvents=1;shape=mxgraph.cisco19.rect;prIcon=l3_switch;fillColor=#FAFAFA;strokeColor=#005073;" vertex="1" parent="8U7Hw96THtBCdrMIRHDT-1">
          <mxGeometry x="480" y="480" width="60" height="60" as="geometry" />
        </mxCell>
        <mxCell id="8U7Hw96THtBCdrMIRHDT-3" value="" style="sketch=0;points=[[0.015,0.015,0],[0.985,0.015,0],[0.985,0.985,0],[0.015,0.985,0],[0.25,0,0],[0.5,0,0],[0.75,0,0],[1,0.25,0],[1,0.5,0],[1,0.75,0],[0.75,1,0],[0.5,1,0],[0.25,1,0],[0,0.75,0],[0,0.5,0],[0,0.25,0]];verticalLabelPosition=bottom;html=1;verticalAlign=top;aspect=fixed;align=center;pointerEvents=1;shape=mxgraph.cisco19.rect;prIcon=l3_switch;fillColor=#FAFAFA;strokeColor=#005073;" vertex="1" parent="8U7Hw96THtBCdrMIRHDT-1">
          <mxGeometry x="390" y="350" width="60" height="60" as="geometry" />
        </mxCell>
        <mxCell id="8U7Hw96THtBCdrMIRHDT-4" value="" style="sketch=0;points=[[0.015,0.015,0],[0.985,0.015,0],[0.985,0.985,0],[0.015,0.985,0],[0.25,0,0],[0.5,0,0],[0.75,0,0],[1,0.25,0],[1,0.5,0],[1,0.75,0],[0.75,1,0],[0.5,1,0],[0.25,1,0],[0,0.75,0],[0,0.5,0],[0,0.25,0]];verticalLabelPosition=bottom;html=1;verticalAlign=top;aspect=fixed;align=center;pointerEvents=1;shape=mxgraph.cisco19.rect;prIcon=l3_switch;fillColor=#FAFAFA;strokeColor=#005073;" vertex="1" parent="8U7Hw96THtBCdrMIRHDT-1">
          <mxGeometry x="300" y="480" width="60" height="60" as="geometry" />
        </mxCell>
        <mxCell id="8U7Hw96THtBCdrMIRHDT-5" style="edgeStyle=orthogonalEdgeStyle;rounded=0;orthogonalLoop=1;jettySize=auto;html=1;exitX=0.25;exitY=0;exitDx=0;exitDy=0;exitPerimeter=0;entryX=0.75;entryY=1;entryDx=0;entryDy=0;entryPerimeter=0;endArrow=none;endFill=0;" edge="1" parent="8U7Hw96THtBCdrMIRHDT-1" source="8U7Hw96THtBCdrMIRHDT-2" target="8U7Hw96THtBCdrMIRHDT-3">
          <mxGeometry relative="1" as="geometry" />
        </mxCell>
        <mxCell id="8U7Hw96THtBCdrMIRHDT-6" style="edgeStyle=orthogonalEdgeStyle;rounded=0;orthogonalLoop=1;jettySize=auto;html=1;exitX=0.75;exitY=0;exitDx=0;exitDy=0;exitPerimeter=0;entryX=0.25;entryY=1;entryDx=0;entryDy=0;entryPerimeter=0;endArrow=none;endFill=0;" edge="1" parent="8U7Hw96THtBCdrMIRHDT-1" source="8U7Hw96THtBCdrMIRHDT-4" target="8U7Hw96THtBCdrMIRHDT-3">
          <mxGeometry relative="1" as="geometry" />
        </mxCell>
        <mxCell id="8U7Hw96THtBCdrMIRHDT-7" value="" style="sketch=0;points=[[0.015,0.015,0],[0.985,0.015,0],[0.985,0.985,0],[0.015,0.985,0],[0.25,0,0],[0.5,0,0],[0.75,0,0],[1,0.25,0],[1,0.5,0],[1,0.75,0],[0.75,1,0],[0.5,1,0],[0.25,1,0],[0,0.75,0],[0,0.5,0],[0,0.25,0]];verticalLabelPosition=bottom;html=1;verticalAlign=top;aspect=fixed;align=center;pointerEvents=1;shape=mxgraph.cisco19.server;fillColor=#005073;strokeColor=none;" vertex="1" parent="8U7Hw96THtBCdrMIRHDT-1">
          <mxGeometry x="487" y="606" width="50" height="90.91" as="geometry" />
        </mxCell>
        <mxCell id="8U7Hw96THtBCdrMIRHDT-8" value="" style="sketch=0;points=[[0.015,0.015,0],[0.985,0.015,0],[0.985,0.985,0],[0.015,0.985,0],[0.25,0,0],[0.5,0,0],[0.75,0,0],[1,0.25,0],[1,0.5,0],[1,0.75,0],[0.75,1,0],[0.5,1,0],[0.25,1,0],[0,0.75,0],[0,0.5,0],[0,0.25,0]];verticalLabelPosition=bottom;html=1;verticalAlign=top;aspect=fixed;align=center;pointerEvents=1;shape=mxgraph.cisco19.server;fillColor=#005073;strokeColor=none;" vertex="1" parent="8U7Hw96THtBCdrMIRHDT-1">
          <mxGeometry x="307" y="606" width="50" height="90.91" as="geometry" />
        </mxCell>
        <mxCell id="8U7Hw96THtBCdrMIRHDT-9" style="edgeStyle=orthogonalEdgeStyle;rounded=0;orthogonalLoop=1;jettySize=auto;html=1;exitX=0.75;exitY=0;exitDx=0;exitDy=0;exitPerimeter=0;entryX=0.75;entryY=1;entryDx=0;entryDy=0;entryPerimeter=0;endArrow=none;endFill=0;" edge="1" parent="8U7Hw96THtBCdrMIRHDT-1" source="8U7Hw96THtBCdrMIRHDT-7" target="8U7Hw96THtBCdrMIRHDT-2">
          <mxGeometry relative="1" as="geometry" />
        </mxCell>
        <mxCell id="8U7Hw96THtBCdrMIRHDT-10" style="edgeStyle=orthogonalEdgeStyle;rounded=0;orthogonalLoop=1;jettySize=auto;html=1;exitX=0.75;exitY=0;exitDx=0;exitDy=0;exitPerimeter=0;entryX=0.75;entryY=1;entryDx=0;entryDy=0;entryPerimeter=0;endArrow=none;endFill=0;" edge="1" parent="8U7Hw96THtBCdrMIRHDT-1" source="8U7Hw96THtBCdrMIRHDT-8" target="8U7Hw96THtBCdrMIRHDT-4">
          <mxGeometry relative="1" as="geometry" />
        </mxCell>
        <mxCell id="8U7Hw96THtBCdrMIRHDT-11" value="&lt;b&gt;&lt;font style=&quot;font-size: 13px;&quot;&gt;CLI&lt;/font&gt;&lt;/b&gt;" style="text;html=1;align=center;verticalAlign=middle;resizable=0;points=[];autosize=1;strokeColor=none;fillColor=none;" vertex="1" parent="8U7Hw96THtBCdrMIRHDT-1">
          <mxGeometry x="344.29" y="270" width="40" height="30" as="geometry" />
        </mxCell>
        <mxCell id="8U7Hw96THtBCdrMIRHDT-12" value="" style="points=[[0.13,0.02,0],[0.5,0,0],[0.87,0.02,0],[0.885,0.4,0],[0.985,0.985,0],[0.5,1,0],[0.015,0.985,0],[0.115,0.4,0]];verticalLabelPosition=bottom;sketch=0;html=1;verticalAlign=top;aspect=fixed;align=center;pointerEvents=1;shape=mxgraph.cisco19.laptop;fillColor=#005073;strokeColor=none;" vertex="1" parent="8U7Hw96THtBCdrMIRHDT-1">
          <mxGeometry x="384.28999999999996" y="260" width="71.43" height="50" as="geometry" />
        </mxCell>
        <mxCell id="8U7Hw96THtBCdrMIRHDT-13" value="&lt;b&gt;&lt;font style=&quot;font-size: 13px;&quot;&gt;ISP&lt;/font&gt;&lt;/b&gt;" style="text;html=1;align=center;verticalAlign=middle;resizable=0;points=[];autosize=1;strokeColor=none;fillColor=none;" vertex="1" parent="8U7Hw96THtBCdrMIRHDT-1">
          <mxGeometry x="344.29" y="370" width="40" height="30" as="geometry" />
        </mxCell>
        <mxCell id="8U7Hw96THtBCdrMIRHDT-14" style="edgeStyle=orthogonalEdgeStyle;rounded=0;orthogonalLoop=1;jettySize=auto;html=1;exitX=0.5;exitY=0;exitDx=0;exitDy=0;exitPerimeter=0;entryX=0.5;entryY=1;entryDx=0;entryDy=0;entryPerimeter=0;endArrow=none;endFill=0;" edge="1" parent="8U7Hw96THtBCdrMIRHDT-1" source="8U7Hw96THtBCdrMIRHDT-3" target="8U7Hw96THtBCdrMIRHDT-12">
          <mxGeometry relative="1" as="geometry" />
        </mxCell>
        <mxCell id="8U7Hw96THtBCdrMIRHDT-15" value="&lt;span style=&quot;font-size: 13px;&quot;&gt;&lt;b&gt;HQ-R&lt;/b&gt;&lt;/span&gt;" style="text;html=1;align=center;verticalAlign=middle;resizable=0;points=[];autosize=1;strokeColor=none;fillColor=none;" vertex="1" parent="8U7Hw96THtBCdrMIRHDT-1">
          <mxGeometry x="250" y="495" width="60" height="30" as="geometry" />
        </mxCell>
        <mxCell id="8U7Hw96THtBCdrMIRHDT-16" value="&lt;span style=&quot;font-size: 13px;&quot;&gt;&lt;b&gt;BR-R&lt;/b&gt;&lt;/span&gt;" style="text;html=1;align=center;verticalAlign=middle;resizable=0;points=[];autosize=1;strokeColor=none;fillColor=none;" vertex="1" parent="8U7Hw96THtBCdrMIRHDT-1">
          <mxGeometry x="431" y="495" width="60" height="30" as="geometry" />
        </mxCell>
        <mxCell id="8U7Hw96THtBCdrMIRHDT-17" value="&lt;span style=&quot;font-size: 13px;&quot;&gt;&lt;b&gt;HQ-SRV&lt;/b&gt;&lt;/span&gt;" style="text;html=1;align=center;verticalAlign=middle;resizable=0;points=[];autosize=1;strokeColor=none;fillColor=none;" vertex="1" parent="8U7Hw96THtBCdrMIRHDT-1">
          <mxGeometry x="240" y="636.46" width="70" height="30" as="geometry" />
        </mxCell>
        <mxCell id="8U7Hw96THtBCdrMIRHDT-18" value="&lt;span style=&quot;font-size: 13px;&quot;&gt;&lt;b&gt;BR-SRV&lt;/b&gt;&lt;/span&gt;" style="text;html=1;align=center;verticalAlign=middle;resizable=0;points=[];autosize=1;strokeColor=none;fillColor=none;" vertex="1" parent="8U7Hw96THtBCdrMIRHDT-1">
          <mxGeometry x="421" y="636.46" width="70" height="30" as="geometry" />
        </mxCell>
        <mxCell id="8U7Hw96THtBCdrMIRHDT-19" value="2001:11::11/64" style="text;html=1;align=center;verticalAlign=middle;resizable=0;points=[];autosize=1;strokeColor=none;fillColor=none;" vertex="1" parent="8U7Hw96THtBCdrMIRHDT-1">
          <mxGeometry x="249.29" y="456" width="96" height="26" as="geometry" />
        </mxCell>
        <mxCell id="8U7Hw96THtBCdrMIRHDT-20" value="2000:100::1/123" style="text;html=1;align=center;verticalAlign=middle;resizable=0;points=[];autosize=1;strokeColor=none;fillColor=none;" vertex="1" parent="8U7Hw96THtBCdrMIRHDT-1">
          <mxGeometry x="239.28999999999996" y="540" width="105" height="26" as="geometry" />
        </mxCell>
        <mxCell id="8U7Hw96THtBCdrMIRHDT-21" value="2000:200::1/124" style="text;html=1;align=center;verticalAlign=middle;resizable=0;points=[];autosize=1;strokeColor=none;fillColor=none;" vertex="1" parent="8U7Hw96THtBCdrMIRHDT-1">
          <mxGeometry x="420" y="540" width="105" height="26" as="geometry" />
        </mxCell>
        <mxCell id="8U7Hw96THtBCdrMIRHDT-22" value="2001:33::1/64" style="text;html=1;align=center;verticalAlign=middle;resizable=0;points=[];autosize=1;strokeColor=none;fillColor=none;" vertex="1" parent="8U7Hw96THtBCdrMIRHDT-1">
          <mxGeometry x="325" y="323" width="91" height="26" as="geometry" />
        </mxCell>
        <mxCell id="8U7Hw96THtBCdrMIRHDT-23" value="2001:11::1/64" style="text;html=1;align=center;verticalAlign=middle;resizable=0;points=[];autosize=1;strokeColor=none;fillColor=none;" vertex="1" parent="8U7Hw96THtBCdrMIRHDT-1">
          <mxGeometry x="309.99999999999994" y="408" width="91" height="26" as="geometry" />
        </mxCell>
        <mxCell id="8U7Hw96THtBCdrMIRHDT-24" value="2001:22::1/64" style="text;html=1;align=center;verticalAlign=middle;resizable=0;points=[];autosize=1;strokeColor=none;fillColor=none;" vertex="1" parent="8U7Hw96THtBCdrMIRHDT-1">
          <mxGeometry x="435.99999999999994" y="410" width="91" height="26" as="geometry" />
        </mxCell>
        <mxCell id="8U7Hw96THtBCdrMIRHDT-25" value="2001:22::22/64" style="text;html=1;align=center;verticalAlign=middle;resizable=0;points=[];autosize=1;strokeColor=none;fillColor=none;" vertex="1" parent="8U7Hw96THtBCdrMIRHDT-1">
          <mxGeometry x="491.99999999999994" y="454" width="98" height="26" as="geometry" />
        </mxCell>
        <mxCell id="8U7Hw96THtBCdrMIRHDT-26" value="2000:100::2/123" style="text;html=1;align=center;verticalAlign=middle;resizable=0;points=[];autosize=1;strokeColor=none;fillColor=none;" vertex="1" parent="8U7Hw96THtBCdrMIRHDT-1">
          <mxGeometry x="239.28999999999996" y="580" width="105" height="26" as="geometry" />
        </mxCell>
        <mxCell id="8U7Hw96THtBCdrMIRHDT-27" value="2000:200::2/124" style="text;html=1;align=center;verticalAlign=middle;resizable=0;points=[];autosize=1;strokeColor=none;fillColor=none;" vertex="1" parent="8U7Hw96THtBCdrMIRHDT-1">
          <mxGeometry x="420" y="580" width="105" height="26" as="geometry" />
        </mxCell>
      </root>
    </mxGraphModel>
  </diagram>
</mxfile>
